# xmcd
#
# Track frame offsets: 
#        150
#        16550
#        35040
#        47760
#        64282
#        76665
#        96729
#        113407
#        129250
#        145062
#        161457
#        173092
#        187317
#        215822
#
# Disc length: 3036 seconds
#
# Revision: 0
# Processed by: cddbd v1.5.2PL0 Copyright (c) Steve Scherf et al.
# Submitted via: ExactAudioCopy v0.99pb1
#
DISCID=be0bda0e
DTITLE=Michael J. Sheehy and The Hired Mourners - With These Hands - T
DTITLE=he Rise And Fall Of Francis Delaney
DYEAR=2009
DGENRE=Indie
TTITLE0=Did You Hear About Delaney?
TTITLE1=Nobody's Fault But Mine
TTITLE2=Fight For Your Right To Fight
TTITLE3=Medal Made Out Of Tin
TTITLE4=Crooked-Eyed Engineer
TTITLE5=Don't Let Them Steal Your Soul
TTITLE6=With These Hands
TTITLE7=Ain't A White Boy Alive
TTITLE8=The Gospel According To Marcelus J Mudd
TTITLE9=Fight Night
TTITLE10=Dementia Pugilistica
TTITLE11=Frankie My Darling
TTITLE12=When Did We Grow So Old?
TTITLE13=Goodnight Irene
EXTD=
EXTT0=
EXTT1=
EXTT2=
EXTT3=
EXTT4=
EXTT5=
EXTT6=
EXTT7=
EXTT8=
EXTT9=
EXTT10=
EXTT11=
EXTT12=
EXTT13=
PLAYORDER=
